<svg width="73" height="73" viewBox="0 0 73 73" fill="none" xmlns="http://www.w3.org/2000/svg">
<path d="M36.5 0C34.668 0 32.8658 2.02251 32.8658 4.89827C32.8658 7.77403 34.668 9.79654 36.5 9.79654C38.332 9.79654 40.1342 7.77403 40.1342 4.89827C40.1342 2.02251 38.332 0 36.5 0ZM20.0748 0.470076L17.5312 1.74205C19.9159 6.51154 25.6481 10.7185 30.5176 13.5045L32.7606 42.6623H35.0779V26.3874H37.9221V42.6623H40.2394L42.4824 13.5045C47.3519 10.7185 53.0841 6.51154 55.4688 1.74205L52.9252 0.470076C49.7792 5.19454 45.832 8.23589 41.6538 9.59824C40.4994 11.4209 38.6726 12.6407 36.5 12.6407C34.3274 12.6407 32.5008 11.4209 31.3462 9.59808C27.168 8.23604 23.2208 5.19454 20.0748 0.470076ZM22.7532 45.5065V60.6753H0V73H73V68.2597H50.2468V45.5065H22.7532Z" fill="#222222"/>
</svg>
